<mxfile host="app.diagrams.net" agent="Mozilla/5.0 (Windows NT 10.0; Win64; x64; rv:135.0) Gecko/20100101 Firefox/135.0" version="26.0.16">
  <diagram name="Page-1" id="Z6sijJEWcDp4EbHvWEeN">
    <mxGraphModel dx="2150" dy="883" grid="1" gridSize="10" guides="1" tooltips="1" connect="1" arrows="1" fold="1" page="1" pageScale="1" pageWidth="850" pageHeight="1100" math="0" shadow="0">
      <root>
        <mxCell id="0" />
        <mxCell id="1" parent="0" />
        <mxCell id="ZktZ-QJ-nL15yRwZPYif-12" value="" style="rounded=0;whiteSpace=wrap;html=1;" parent="1" vertex="1">
          <mxGeometry x="760" y="150" width="1070" height="290" as="geometry" />
        </mxCell>
        <mxCell id="ZktZ-QJ-nL15yRwZPYif-11" value="" style="rounded=0;whiteSpace=wrap;html=1;" parent="1" vertex="1">
          <mxGeometry x="760" y="470" width="1070" height="210" as="geometry" />
        </mxCell>
        <mxCell id="ZktZ-QJ-nL15yRwZPYif-10" value="" style="rounded=0;whiteSpace=wrap;html=1;" parent="1" vertex="1">
          <mxGeometry x="2110" y="600" width="530" height="310" as="geometry" />
        </mxCell>
        <mxCell id="ZktZ-QJ-nL15yRwZPYif-9" value="" style="rounded=0;whiteSpace=wrap;html=1;" parent="1" vertex="1">
          <mxGeometry x="760" y="700" width="1070" height="520" as="geometry" />
        </mxCell>
        <mxCell id="ZktZ-QJ-nL15yRwZPYif-5" value="" style="rounded=0;whiteSpace=wrap;html=1;" parent="1" vertex="1">
          <mxGeometry x="760" y="1250" width="1070" height="420" as="geometry" />
        </mxCell>
        <mxCell id="LxnoNnFhpKsFhaCu3yyh-172" style="edgeStyle=orthogonalEdgeStyle;rounded=0;orthogonalLoop=1;jettySize=auto;html=1;exitX=0.5;exitY=1;exitDx=0;exitDy=0;entryX=0.5;entryY=0;entryDx=0;entryDy=0;" parent="1" source="LxnoNnFhpKsFhaCu3yyh-2" target="LxnoNnFhpKsFhaCu3yyh-25" edge="1">
          <mxGeometry relative="1" as="geometry" />
        </mxCell>
        <mxCell id="LxnoNnFhpKsFhaCu3yyh-2" value="Messaging Service" style="rounded=0;whiteSpace=wrap;html=1;" parent="1" vertex="1">
          <mxGeometry x="1300" y="810" width="120" height="60" as="geometry" />
        </mxCell>
        <mxCell id="LxnoNnFhpKsFhaCu3yyh-138" style="edgeStyle=orthogonalEdgeStyle;rounded=0;orthogonalLoop=1;jettySize=auto;html=1;exitX=0;exitY=0.5;exitDx=0;exitDy=0;entryX=1;entryY=0.5;entryDx=0;entryDy=0;" parent="1" source="LxnoNnFhpKsFhaCu3yyh-4" target="LxnoNnFhpKsFhaCu3yyh-43" edge="1">
          <mxGeometry relative="1" as="geometry" />
        </mxCell>
        <mxCell id="LxnoNnFhpKsFhaCu3yyh-4" value="Admin" style="rounded=0;whiteSpace=wrap;html=1;" parent="1" vertex="1">
          <mxGeometry x="2740" y="650" width="120" height="60" as="geometry" />
        </mxCell>
        <mxCell id="LxnoNnFhpKsFhaCu3yyh-77" style="edgeStyle=orthogonalEdgeStyle;rounded=0;orthogonalLoop=1;jettySize=auto;html=1;exitX=0;exitY=0.25;exitDx=0;exitDy=0;entryX=1;entryY=0.5;entryDx=0;entryDy=0;" parent="1" source="LxnoNnFhpKsFhaCu3yyh-8" target="LxnoNnFhpKsFhaCu3yyh-14" edge="1">
          <mxGeometry relative="1" as="geometry">
            <Array as="points">
              <mxPoint x="1630" y="525" />
            </Array>
          </mxGeometry>
        </mxCell>
        <mxCell id="LxnoNnFhpKsFhaCu3yyh-95" style="edgeStyle=orthogonalEdgeStyle;rounded=0;orthogonalLoop=1;jettySize=auto;html=1;exitX=1;exitY=0.25;exitDx=0;exitDy=0;entryX=0;entryY=0.25;entryDx=0;entryDy=0;" parent="1" source="LxnoNnFhpKsFhaCu3yyh-8" edge="1">
          <mxGeometry relative="1" as="geometry">
            <mxPoint x="1900" y="525" as="targetPoint" />
          </mxGeometry>
        </mxCell>
        <mxCell id="LxnoNnFhpKsFhaCu3yyh-8" value="Database Server" style="rounded=0;whiteSpace=wrap;html=1;" parent="1" vertex="1">
          <mxGeometry x="1670" y="510" width="120" height="60" as="geometry" />
        </mxCell>
        <mxCell id="LxnoNnFhpKsFhaCu3yyh-125" style="edgeStyle=orthogonalEdgeStyle;rounded=0;orthogonalLoop=1;jettySize=auto;html=1;exitX=1;exitY=0.5;exitDx=0;exitDy=0;" parent="1" source="LxnoNnFhpKsFhaCu3yyh-9" target="LxnoNnFhpKsFhaCu3yyh-36" edge="1">
          <mxGeometry relative="1" as="geometry" />
        </mxCell>
        <mxCell id="LxnoNnFhpKsFhaCu3yyh-9" value="Event Management Service" style="rounded=0;whiteSpace=wrap;html=1;" parent="1" vertex="1">
          <mxGeometry x="1300" y="1290" width="120" height="60" as="geometry" />
        </mxCell>
        <mxCell id="ZktZ-QJ-nL15yRwZPYif-7" style="edgeStyle=orthogonalEdgeStyle;rounded=0;orthogonalLoop=1;jettySize=auto;html=1;entryX=1;entryY=0.5;entryDx=0;entryDy=0;" parent="1" source="LxnoNnFhpKsFhaCu3yyh-13" target="LxnoNnFhpKsFhaCu3yyh-29" edge="1">
          <mxGeometry relative="1" as="geometry" />
        </mxCell>
        <mxCell id="LxnoNnFhpKsFhaCu3yyh-13" value="Edit details" style="ellipse;whiteSpace=wrap;html=1;" parent="1" vertex="1">
          <mxGeometry x="1120" y="610" width="80" height="60" as="geometry" />
        </mxCell>
        <mxCell id="LxnoNnFhpKsFhaCu3yyh-75" style="edgeStyle=orthogonalEdgeStyle;rounded=0;orthogonalLoop=1;jettySize=auto;html=1;exitX=0.5;exitY=1;exitDx=0;exitDy=0;entryX=0.5;entryY=0;entryDx=0;entryDy=0;" parent="1" source="LxnoNnFhpKsFhaCu3yyh-14" target="LxnoNnFhpKsFhaCu3yyh-13" edge="1">
          <mxGeometry relative="1" as="geometry" />
        </mxCell>
        <mxCell id="LxnoNnFhpKsFhaCu3yyh-14" value="Fetch profile data" style="ellipse;whiteSpace=wrap;html=1;" parent="1" vertex="1">
          <mxGeometry x="1285" y="490" width="90" height="70" as="geometry" />
        </mxCell>
        <mxCell id="LxnoNnFhpKsFhaCu3yyh-79" style="edgeStyle=orthogonalEdgeStyle;rounded=0;orthogonalLoop=1;jettySize=auto;html=1;exitX=1;exitY=0.5;exitDx=0;exitDy=0;entryX=0;entryY=0.5;entryDx=0;entryDy=0;" parent="1" source="LxnoNnFhpKsFhaCu3yyh-15" target="LxnoNnFhpKsFhaCu3yyh-14" edge="1">
          <mxGeometry relative="1" as="geometry" />
        </mxCell>
        <mxCell id="LxnoNnFhpKsFhaCu3yyh-15" value="User accesses profile" style="ellipse;whiteSpace=wrap;html=1;" parent="1" vertex="1">
          <mxGeometry x="1110" y="490" width="100" height="70" as="geometry" />
        </mxCell>
        <mxCell id="LxnoNnFhpKsFhaCu3yyh-80" style="edgeStyle=orthogonalEdgeStyle;rounded=0;orthogonalLoop=1;jettySize=auto;html=1;exitX=1;exitY=0.5;exitDx=0;exitDy=0;entryX=0;entryY=0.5;entryDx=0;entryDy=0;" parent="1" source="LxnoNnFhpKsFhaCu3yyh-16" target="LxnoNnFhpKsFhaCu3yyh-15" edge="1">
          <mxGeometry relative="1" as="geometry" />
        </mxCell>
        <mxCell id="LxnoNnFhpKsFhaCu3yyh-16" value="&amp;nbsp;Profile Management" style="ellipse;whiteSpace=wrap;html=1;" parent="1" vertex="1">
          <mxGeometry x="780" y="510" width="200" height="100" as="geometry" />
        </mxCell>
        <mxCell id="LxnoNnFhpKsFhaCu3yyh-84" style="edgeStyle=orthogonalEdgeStyle;rounded=0;orthogonalLoop=1;jettySize=auto;html=1;exitX=0.5;exitY=1;exitDx=0;exitDy=0;entryX=0.5;entryY=0;entryDx=0;entryDy=0;" parent="1" source="LxnoNnFhpKsFhaCu3yyh-17" target="LxnoNnFhpKsFhaCu3yyh-20" edge="1">
          <mxGeometry relative="1" as="geometry" />
        </mxCell>
        <mxCell id="LxnoNnFhpKsFhaCu3yyh-85" style="edgeStyle=orthogonalEdgeStyle;rounded=0;orthogonalLoop=1;jettySize=auto;html=1;exitX=0.5;exitY=0;exitDx=0;exitDy=0;entryX=0.5;entryY=1;entryDx=0;entryDy=0;" parent="1" source="LxnoNnFhpKsFhaCu3yyh-17" target="LxnoNnFhpKsFhaCu3yyh-21" edge="1">
          <mxGeometry relative="1" as="geometry" />
        </mxCell>
        <mxCell id="LxnoNnFhpKsFhaCu3yyh-93" style="edgeStyle=orthogonalEdgeStyle;rounded=0;orthogonalLoop=1;jettySize=auto;html=1;exitX=1;exitY=1;exitDx=0;exitDy=0;entryX=0.25;entryY=0;entryDx=0;entryDy=0;" parent="1" source="LxnoNnFhpKsFhaCu3yyh-17" target="LxnoNnFhpKsFhaCu3yyh-89" edge="1">
          <mxGeometry relative="1" as="geometry">
            <Array as="points">
              <mxPoint x="1662" y="240" />
              <mxPoint x="1700" y="240" />
            </Array>
          </mxGeometry>
        </mxCell>
        <mxCell id="LxnoNnFhpKsFhaCu3yyh-17" value="&amp;nbsp;Authentication&amp;nbsp;" style="ellipse;whiteSpace=wrap;html=1;" parent="1" vertex="1">
          <mxGeometry x="1560" y="170" width="120" height="80" as="geometry" />
        </mxCell>
        <mxCell id="LxnoNnFhpKsFhaCu3yyh-57" style="edgeStyle=orthogonalEdgeStyle;rounded=0;orthogonalLoop=1;jettySize=auto;html=1;exitX=1;exitY=0.5;exitDx=0;exitDy=0;" parent="1" source="LxnoNnFhpKsFhaCu3yyh-18" target="LxnoNnFhpKsFhaCu3yyh-19" edge="1">
          <mxGeometry relative="1" as="geometry" />
        </mxCell>
        <mxCell id="LxnoNnFhpKsFhaCu3yyh-18" value="&amp;nbsp;User Login &amp;amp; Registration" style="ellipse;whiteSpace=wrap;html=1;" parent="1" vertex="1">
          <mxGeometry x="780" y="160" width="200" height="100" as="geometry" />
        </mxCell>
        <mxCell id="LxnoNnFhpKsFhaCu3yyh-58" style="edgeStyle=orthogonalEdgeStyle;rounded=0;orthogonalLoop=1;jettySize=auto;html=1;exitX=1;exitY=0.5;exitDx=0;exitDy=0;entryX=0;entryY=0.5;entryDx=0;entryDy=0;" parent="1" source="LxnoNnFhpKsFhaCu3yyh-86" target="LxnoNnFhpKsFhaCu3yyh-17" edge="1">
          <mxGeometry relative="1" as="geometry" />
        </mxCell>
        <mxCell id="LxnoNnFhpKsFhaCu3yyh-88" style="edgeStyle=orthogonalEdgeStyle;rounded=0;orthogonalLoop=1;jettySize=auto;html=1;exitX=1;exitY=0.5;exitDx=0;exitDy=0;entryX=0;entryY=0.5;entryDx=0;entryDy=0;" parent="1" source="LxnoNnFhpKsFhaCu3yyh-19" target="LxnoNnFhpKsFhaCu3yyh-86" edge="1">
          <mxGeometry relative="1" as="geometry" />
        </mxCell>
        <mxCell id="LxnoNnFhpKsFhaCu3yyh-19" value="Enter Credentials" style="ellipse;whiteSpace=wrap;html=1;" parent="1" vertex="1">
          <mxGeometry x="1090" y="180" width="100" height="60" as="geometry" />
        </mxCell>
        <mxCell id="LxnoNnFhpKsFhaCu3yyh-90" style="edgeStyle=orthogonalEdgeStyle;rounded=0;orthogonalLoop=1;jettySize=auto;html=1;exitX=1;exitY=0.5;exitDx=0;exitDy=0;entryX=0;entryY=0.5;entryDx=0;entryDy=0;" parent="1" source="LxnoNnFhpKsFhaCu3yyh-20" target="LxnoNnFhpKsFhaCu3yyh-89" edge="1">
          <mxGeometry relative="1" as="geometry" />
        </mxCell>
        <mxCell id="LxnoNnFhpKsFhaCu3yyh-101" style="edgeStyle=orthogonalEdgeStyle;rounded=0;orthogonalLoop=1;jettySize=auto;html=1;exitX=0.5;exitY=1;exitDx=0;exitDy=0;entryX=0.5;entryY=0;entryDx=0;entryDy=0;" parent="1" source="LxnoNnFhpKsFhaCu3yyh-20" target="LxnoNnFhpKsFhaCu3yyh-16" edge="1">
          <mxGeometry relative="1" as="geometry" />
        </mxCell>
        <mxCell id="LxnoNnFhpKsFhaCu3yyh-20" value="If new, Register &amp;amp; Store in Database" style="ellipse;whiteSpace=wrap;html=1;" parent="1" vertex="1">
          <mxGeometry x="1315" y="320" width="120" height="70" as="geometry" />
        </mxCell>
        <mxCell id="LxnoNnFhpKsFhaCu3yyh-21" value="If valid, Redirect to Homepage" style="ellipse;whiteSpace=wrap;html=1;" parent="1" vertex="1">
          <mxGeometry x="1557.5" y="20" width="125" height="70" as="geometry" />
        </mxCell>
        <mxCell id="LxnoNnFhpKsFhaCu3yyh-122" style="edgeStyle=orthogonalEdgeStyle;rounded=0;orthogonalLoop=1;jettySize=auto;html=1;exitX=0;exitY=0.5;exitDx=0;exitDy=0;entryX=1;entryY=0.5;entryDx=0;entryDy=0;" parent="1" source="LxnoNnFhpKsFhaCu3yyh-23" target="LxnoNnFhpKsFhaCu3yyh-2" edge="1">
          <mxGeometry relative="1" as="geometry" />
        </mxCell>
        <mxCell id="LxnoNnFhpKsFhaCu3yyh-23" value="Notify recipient" style="ellipse;whiteSpace=wrap;html=1;" parent="1" vertex="1">
          <mxGeometry x="1485" y="810" width="120" height="60" as="geometry" />
        </mxCell>
        <mxCell id="LxnoNnFhpKsFhaCu3yyh-112" style="edgeStyle=orthogonalEdgeStyle;rounded=0;orthogonalLoop=1;jettySize=auto;html=1;exitX=1;exitY=0;exitDx=0;exitDy=0;entryX=0.25;entryY=1;entryDx=0;entryDy=0;" parent="1" source="LxnoNnFhpKsFhaCu3yyh-24" target="LxnoNnFhpKsFhaCu3yyh-108" edge="1">
          <mxGeometry relative="1" as="geometry" />
        </mxCell>
        <mxCell id="LxnoNnFhpKsFhaCu3yyh-119" style="edgeStyle=orthogonalEdgeStyle;rounded=0;orthogonalLoop=1;jettySize=auto;html=1;exitX=0.5;exitY=0;exitDx=0;exitDy=0;" parent="1" source="LxnoNnFhpKsFhaCu3yyh-10" target="LxnoNnFhpKsFhaCu3yyh-23" edge="1">
          <mxGeometry relative="1" as="geometry" />
        </mxCell>
        <mxCell id="LxnoNnFhpKsFhaCu3yyh-24" value="Store message" style="ellipse;whiteSpace=wrap;html=1;" parent="1" vertex="1">
          <mxGeometry x="1500" y="1145" width="90" height="65" as="geometry" />
        </mxCell>
        <mxCell id="LxnoNnFhpKsFhaCu3yyh-121" style="edgeStyle=orthogonalEdgeStyle;rounded=0;orthogonalLoop=1;jettySize=auto;html=1;exitX=0.5;exitY=1;exitDx=0;exitDy=0;entryX=0;entryY=0.5;entryDx=0;entryDy=0;" parent="1" source="LxnoNnFhpKsFhaCu3yyh-25" target="LxnoNnFhpKsFhaCu3yyh-24" edge="1">
          <mxGeometry relative="1" as="geometry" />
        </mxCell>
        <mxCell id="LxnoNnFhpKsFhaCu3yyh-25" value="Compose message" style="ellipse;whiteSpace=wrap;html=1;" parent="1" vertex="1">
          <mxGeometry x="1300" y="970" width="120" height="70" as="geometry" />
        </mxCell>
        <mxCell id="LxnoNnFhpKsFhaCu3yyh-171" style="edgeStyle=orthogonalEdgeStyle;rounded=0;orthogonalLoop=1;jettySize=auto;html=1;exitX=0;exitY=0.5;exitDx=0;exitDy=0;entryX=0.5;entryY=0;entryDx=0;entryDy=0;" parent="1" source="LxnoNnFhpKsFhaCu3yyh-26" target="LxnoNnFhpKsFhaCu3yyh-2" edge="1">
          <mxGeometry relative="1" as="geometry" />
        </mxCell>
        <mxCell id="LxnoNnFhpKsFhaCu3yyh-26" value="Fetch recipient details" style="ellipse;whiteSpace=wrap;html=1;" parent="1" vertex="1">
          <mxGeometry x="1490" y="720" width="120" height="63" as="geometry" />
        </mxCell>
        <mxCell id="LxnoNnFhpKsFhaCu3yyh-103" style="edgeStyle=orthogonalEdgeStyle;rounded=0;orthogonalLoop=1;jettySize=auto;html=1;exitX=1;exitY=0.5;exitDx=0;exitDy=0;entryX=0;entryY=0.5;entryDx=0;entryDy=0;" parent="1" source="LxnoNnFhpKsFhaCu3yyh-27" target="LxnoNnFhpKsFhaCu3yyh-2" edge="1">
          <mxGeometry relative="1" as="geometry" />
        </mxCell>
        <mxCell id="LxnoNnFhpKsFhaCu3yyh-27" value="User searches for another user" style="ellipse;whiteSpace=wrap;html=1;" parent="1" vertex="1">
          <mxGeometry x="1085" y="805" width="120" height="70" as="geometry" />
        </mxCell>
        <mxCell id="LxnoNnFhpKsFhaCu3yyh-82" style="edgeStyle=orthogonalEdgeStyle;rounded=0;orthogonalLoop=1;jettySize=auto;html=1;exitX=1;exitY=0.5;exitDx=0;exitDy=0;entryX=0;entryY=0.5;entryDx=0;entryDy=0;" parent="1" source="LxnoNnFhpKsFhaCu3yyh-28" target="LxnoNnFhpKsFhaCu3yyh-27" edge="1">
          <mxGeometry relative="1" as="geometry" />
        </mxCell>
        <mxCell id="LxnoNnFhpKsFhaCu3yyh-28" value="Messaging &amp;amp; Networking" style="ellipse;whiteSpace=wrap;html=1;" parent="1" vertex="1">
          <mxGeometry x="790" y="790" width="200" height="100" as="geometry" />
        </mxCell>
        <mxCell id="LxnoNnFhpKsFhaCu3yyh-109" style="edgeStyle=orthogonalEdgeStyle;rounded=0;orthogonalLoop=1;jettySize=auto;html=1;exitX=0;exitY=0.5;exitDx=0;exitDy=0;entryX=0;entryY=0.75;entryDx=0;entryDy=0;" parent="1" source="LxnoNnFhpKsFhaCu3yyh-29" target="LxnoNnFhpKsFhaCu3yyh-8" edge="1">
          <mxGeometry relative="1" as="geometry" />
        </mxCell>
        <mxCell id="LxnoNnFhpKsFhaCu3yyh-29" value="Save changes" style="ellipse;whiteSpace=wrap;html=1;direction=west;" parent="1" vertex="1">
          <mxGeometry x="1270" y="615" width="90" height="50" as="geometry" />
        </mxCell>
        <mxCell id="LxnoNnFhpKsFhaCu3yyh-35" value="Notify users" style="ellipse;whiteSpace=wrap;html=1;" parent="1" vertex="1">
          <mxGeometry x="1300" y="1450" width="120" height="80" as="geometry" />
        </mxCell>
        <mxCell id="LxnoNnFhpKsFhaCu3yyh-127" style="edgeStyle=orthogonalEdgeStyle;rounded=0;orthogonalLoop=1;jettySize=auto;html=1;exitX=1;exitY=0.5;exitDx=0;exitDy=0;entryX=0.5;entryY=0;entryDx=0;entryDy=0;" parent="1" source="LxnoNnFhpKsFhaCu3yyh-36" target="LxnoNnFhpKsFhaCu3yyh-126" edge="1">
          <mxGeometry relative="1" as="geometry" />
        </mxCell>
        <mxCell id="LxnoNnFhpKsFhaCu3yyh-131" style="edgeStyle=orthogonalEdgeStyle;rounded=0;orthogonalLoop=1;jettySize=auto;html=1;exitX=0.5;exitY=1;exitDx=0;exitDy=0;" parent="1" source="LxnoNnFhpKsFhaCu3yyh-36" target="LxnoNnFhpKsFhaCu3yyh-130" edge="1">
          <mxGeometry relative="1" as="geometry" />
        </mxCell>
        <mxCell id="LxnoNnFhpKsFhaCu3yyh-36" value="Store in Event Database" style="ellipse;whiteSpace=wrap;html=1;" parent="1" vertex="1">
          <mxGeometry x="1510" y="1280" width="120" height="80" as="geometry" />
        </mxCell>
        <mxCell id="LxnoNnFhpKsFhaCu3yyh-124" style="edgeStyle=orthogonalEdgeStyle;rounded=0;orthogonalLoop=1;jettySize=auto;html=1;exitX=1;exitY=0.5;exitDx=0;exitDy=0;entryX=0;entryY=0.5;entryDx=0;entryDy=0;" parent="1" source="LxnoNnFhpKsFhaCu3yyh-37" target="LxnoNnFhpKsFhaCu3yyh-9" edge="1">
          <mxGeometry relative="1" as="geometry" />
        </mxCell>
        <mxCell id="LxnoNnFhpKsFhaCu3yyh-37" value="Faculty creates event" style="ellipse;whiteSpace=wrap;html=1;" parent="1" vertex="1">
          <mxGeometry x="1110" y="1280" width="120" height="80" as="geometry" />
        </mxCell>
        <mxCell id="LxnoNnFhpKsFhaCu3yyh-123" style="edgeStyle=orthogonalEdgeStyle;rounded=0;orthogonalLoop=1;jettySize=auto;html=1;exitX=1;exitY=0.5;exitDx=0;exitDy=0;entryX=0;entryY=0.5;entryDx=0;entryDy=0;" parent="1" source="LxnoNnFhpKsFhaCu3yyh-38" target="LxnoNnFhpKsFhaCu3yyh-37" edge="1">
          <mxGeometry relative="1" as="geometry" />
        </mxCell>
        <mxCell id="LxnoNnFhpKsFhaCu3yyh-38" value="Event Management" style="ellipse;whiteSpace=wrap;html=1;" parent="1" vertex="1">
          <mxGeometry x="810" y="1270" width="192.5" height="100" as="geometry" />
        </mxCell>
        <mxCell id="LxnoNnFhpKsFhaCu3yyh-145" style="edgeStyle=orthogonalEdgeStyle;rounded=0;orthogonalLoop=1;jettySize=auto;html=1;exitX=0;exitY=0.5;exitDx=0;exitDy=0;entryX=0.5;entryY=1;entryDx=0;entryDy=0;" parent="1" source="LxnoNnFhpKsFhaCu3yyh-40" target="LxnoNnFhpKsFhaCu3yyh-89" edge="1">
          <mxGeometry relative="1" as="geometry">
            <Array as="points">
              <mxPoint x="2090" y="845" />
              <mxPoint x="2090" y="470" />
              <mxPoint x="1730" y="470" />
            </Array>
          </mxGeometry>
        </mxCell>
        <mxCell id="LxnoNnFhpKsFhaCu3yyh-40" value="Save updates" style="ellipse;whiteSpace=wrap;html=1;" parent="1" vertex="1">
          <mxGeometry x="2130" y="805" width="120" height="80" as="geometry" />
        </mxCell>
        <mxCell id="LxnoNnFhpKsFhaCu3yyh-144" style="edgeStyle=orthogonalEdgeStyle;rounded=0;orthogonalLoop=1;jettySize=auto;html=1;exitX=0.5;exitY=1;exitDx=0;exitDy=0;entryX=0.5;entryY=0;entryDx=0;entryDy=0;" parent="1" source="LxnoNnFhpKsFhaCu3yyh-41" target="LxnoNnFhpKsFhaCu3yyh-40" edge="1">
          <mxGeometry relative="1" as="geometry" />
        </mxCell>
        <mxCell id="LxnoNnFhpKsFhaCu3yyh-41" value="Manage users, logs, system settings" style="ellipse;whiteSpace=wrap;html=1;" parent="1" vertex="1">
          <mxGeometry x="2130" y="640" width="120" height="80" as="geometry" />
        </mxCell>
        <mxCell id="LxnoNnFhpKsFhaCu3yyh-143" style="edgeStyle=orthogonalEdgeStyle;rounded=0;orthogonalLoop=1;jettySize=auto;html=1;exitX=0;exitY=0.5;exitDx=0;exitDy=0;entryX=1;entryY=0.5;entryDx=0;entryDy=0;" parent="1" source="LxnoNnFhpKsFhaCu3yyh-42" target="LxnoNnFhpKsFhaCu3yyh-41" edge="1">
          <mxGeometry relative="1" as="geometry" />
        </mxCell>
        <mxCell id="LxnoNnFhpKsFhaCu3yyh-42" value="Admin logs in" style="ellipse;whiteSpace=wrap;html=1;" parent="1" vertex="1">
          <mxGeometry x="2320" y="640" width="120" height="80" as="geometry" />
        </mxCell>
        <mxCell id="LxnoNnFhpKsFhaCu3yyh-139" style="edgeStyle=orthogonalEdgeStyle;rounded=0;orthogonalLoop=1;jettySize=auto;html=1;exitX=0;exitY=0.5;exitDx=0;exitDy=0;entryX=1;entryY=0.5;entryDx=0;entryDy=0;" parent="1" source="LxnoNnFhpKsFhaCu3yyh-43" target="LxnoNnFhpKsFhaCu3yyh-42" edge="1">
          <mxGeometry relative="1" as="geometry" />
        </mxCell>
        <mxCell id="LxnoNnFhpKsFhaCu3yyh-43" value="System Management" style="ellipse;whiteSpace=wrap;html=1;" parent="1" vertex="1">
          <mxGeometry x="2500" y="630" width="130" height="100" as="geometry" />
        </mxCell>
        <mxCell id="LxnoNnFhpKsFhaCu3yyh-100" style="edgeStyle=orthogonalEdgeStyle;rounded=0;orthogonalLoop=1;jettySize=auto;html=1;exitX=0;exitY=0.75;exitDx=0;exitDy=0;entryX=1;entryY=0.75;entryDx=0;entryDy=0;" parent="1" target="LxnoNnFhpKsFhaCu3yyh-8" edge="1">
          <mxGeometry relative="1" as="geometry">
            <mxPoint x="1900" y="555" as="sourcePoint" />
          </mxGeometry>
        </mxCell>
        <mxCell id="LxnoNnFhpKsFhaCu3yyh-99" style="edgeStyle=orthogonalEdgeStyle;rounded=0;orthogonalLoop=1;jettySize=auto;html=1;exitX=0;exitY=0.75;exitDx=0;exitDy=0;entryX=1;entryY=0.75;entryDx=0;entryDy=0;" parent="1" target="LxnoNnFhpKsFhaCu3yyh-89" edge="1">
          <mxGeometry relative="1" as="geometry">
            <mxPoint x="1900" y="370" as="sourcePoint" />
          </mxGeometry>
        </mxCell>
        <mxCell id="LxnoNnFhpKsFhaCu3yyh-137" style="edgeStyle=orthogonalEdgeStyle;rounded=0;orthogonalLoop=1;jettySize=auto;html=1;exitX=0;exitY=0.75;exitDx=0;exitDy=0;entryX=1;entryY=0.75;entryDx=0;entryDy=0;" parent="1" target="LxnoNnFhpKsFhaCu3yyh-126" edge="1">
          <mxGeometry relative="1" as="geometry">
            <mxPoint x="1900" y="1575" as="sourcePoint" />
          </mxGeometry>
        </mxCell>
        <mxCell id="LxnoNnFhpKsFhaCu3yyh-117" style="edgeStyle=orthogonalEdgeStyle;rounded=0;orthogonalLoop=1;jettySize=auto;html=1;exitX=0;exitY=0.75;exitDx=0;exitDy=0;entryX=1;entryY=0.75;entryDx=0;entryDy=0;" parent="1" target="LxnoNnFhpKsFhaCu3yyh-108" edge="1">
          <mxGeometry relative="1" as="geometry">
            <mxPoint x="1900" y="895" as="sourcePoint" />
          </mxGeometry>
        </mxCell>
        <mxCell id="LxnoNnFhpKsFhaCu3yyh-86" value="Aunthentication Service" style="rounded=0;whiteSpace=wrap;html=1;" parent="1" vertex="1">
          <mxGeometry x="1317" y="180" width="120" height="60" as="geometry" />
        </mxCell>
        <mxCell id="LxnoNnFhpKsFhaCu3yyh-94" style="edgeStyle=orthogonalEdgeStyle;rounded=0;orthogonalLoop=1;jettySize=auto;html=1;exitX=0.75;exitY=0;exitDx=0;exitDy=0;entryX=1;entryY=0;entryDx=0;entryDy=0;" parent="1" source="LxnoNnFhpKsFhaCu3yyh-89" target="LxnoNnFhpKsFhaCu3yyh-17" edge="1">
          <mxGeometry relative="1" as="geometry">
            <Array as="points">
              <mxPoint x="1760" y="182" />
            </Array>
          </mxGeometry>
        </mxCell>
        <mxCell id="LxnoNnFhpKsFhaCu3yyh-97" style="edgeStyle=orthogonalEdgeStyle;rounded=0;orthogonalLoop=1;jettySize=auto;html=1;exitX=1;exitY=0.25;exitDx=0;exitDy=0;entryX=0;entryY=0.25;entryDx=0;entryDy=0;" parent="1" source="LxnoNnFhpKsFhaCu3yyh-89" edge="1">
          <mxGeometry relative="1" as="geometry">
            <mxPoint x="1900" y="340" as="targetPoint" />
          </mxGeometry>
        </mxCell>
        <mxCell id="LxnoNnFhpKsFhaCu3yyh-89" value="Database Server" style="rounded=0;whiteSpace=wrap;html=1;" parent="1" vertex="1">
          <mxGeometry x="1670" y="325" width="120" height="60" as="geometry" />
        </mxCell>
        <mxCell id="LxnoNnFhpKsFhaCu3yyh-107" style="edgeStyle=orthogonalEdgeStyle;rounded=0;orthogonalLoop=1;jettySize=auto;html=1;exitX=0.5;exitY=1;exitDx=0;exitDy=0;" parent="1" source="LxnoNnFhpKsFhaCu3yyh-25" target="LxnoNnFhpKsFhaCu3yyh-25" edge="1">
          <mxGeometry relative="1" as="geometry" />
        </mxCell>
        <mxCell id="LxnoNnFhpKsFhaCu3yyh-116" style="edgeStyle=orthogonalEdgeStyle;rounded=0;orthogonalLoop=1;jettySize=auto;html=1;exitX=1;exitY=0.25;exitDx=0;exitDy=0;entryX=0;entryY=0.25;entryDx=0;entryDy=0;" parent="1" source="LxnoNnFhpKsFhaCu3yyh-108" edge="1">
          <mxGeometry relative="1" as="geometry">
            <mxPoint x="1900" y="865" as="targetPoint" />
          </mxGeometry>
        </mxCell>
        <mxCell id="LxnoNnFhpKsFhaCu3yyh-170" style="edgeStyle=orthogonalEdgeStyle;rounded=0;orthogonalLoop=1;jettySize=auto;html=1;exitX=0.5;exitY=0;exitDx=0;exitDy=0;entryX=1;entryY=0.5;entryDx=0;entryDy=0;" parent="1" source="LxnoNnFhpKsFhaCu3yyh-108" target="LxnoNnFhpKsFhaCu3yyh-26" edge="1">
          <mxGeometry relative="1" as="geometry" />
        </mxCell>
        <mxCell id="ZktZ-QJ-nL15yRwZPYif-8" style="edgeStyle=orthogonalEdgeStyle;rounded=0;orthogonalLoop=1;jettySize=auto;html=1;exitX=0.75;exitY=1;exitDx=0;exitDy=0;entryX=1;entryY=0.5;entryDx=0;entryDy=0;" parent="1" source="LxnoNnFhpKsFhaCu3yyh-108" target="LxnoNnFhpKsFhaCu3yyh-24" edge="1">
          <mxGeometry relative="1" as="geometry" />
        </mxCell>
        <mxCell id="LxnoNnFhpKsFhaCu3yyh-108" value="Database Server" style="rounded=0;whiteSpace=wrap;html=1;" parent="1" vertex="1">
          <mxGeometry x="1670" y="850" width="120" height="60" as="geometry" />
        </mxCell>
        <mxCell id="LxnoNnFhpKsFhaCu3yyh-120" value="" style="edgeStyle=orthogonalEdgeStyle;rounded=0;orthogonalLoop=1;jettySize=auto;html=1;exitX=0.5;exitY=0;exitDx=0;exitDy=0;" parent="1" source="LxnoNnFhpKsFhaCu3yyh-24" target="LxnoNnFhpKsFhaCu3yyh-10" edge="1">
          <mxGeometry relative="1" as="geometry">
            <mxPoint x="1545" y="1043" as="sourcePoint" />
            <mxPoint x="1550" y="820" as="targetPoint" />
          </mxGeometry>
        </mxCell>
        <mxCell id="LxnoNnFhpKsFhaCu3yyh-10" value="Notification Service" style="rounded=0;whiteSpace=wrap;html=1;" parent="1" vertex="1">
          <mxGeometry x="1485" y="980" width="120" height="60" as="geometry" />
        </mxCell>
        <mxCell id="LxnoNnFhpKsFhaCu3yyh-135" style="edgeStyle=orthogonalEdgeStyle;rounded=0;orthogonalLoop=1;jettySize=auto;html=1;exitX=0;exitY=0.5;exitDx=0;exitDy=0;entryX=1;entryY=1;entryDx=0;entryDy=0;" parent="1" source="LxnoNnFhpKsFhaCu3yyh-126" target="LxnoNnFhpKsFhaCu3yyh-35" edge="1">
          <mxGeometry relative="1" as="geometry">
            <Array as="points">
              <mxPoint x="1402" y="1560" />
            </Array>
          </mxGeometry>
        </mxCell>
        <mxCell id="LxnoNnFhpKsFhaCu3yyh-136" style="edgeStyle=orthogonalEdgeStyle;rounded=0;orthogonalLoop=1;jettySize=auto;html=1;exitX=1;exitY=0.25;exitDx=0;exitDy=0;entryX=0;entryY=0.25;entryDx=0;entryDy=0;" parent="1" source="LxnoNnFhpKsFhaCu3yyh-126" edge="1">
          <mxGeometry relative="1" as="geometry">
            <mxPoint x="1900" y="1545" as="targetPoint" />
          </mxGeometry>
        </mxCell>
        <mxCell id="LxnoNnFhpKsFhaCu3yyh-126" value="Database Server" style="rounded=0;whiteSpace=wrap;html=1;" parent="1" vertex="1">
          <mxGeometry x="1670" y="1530" width="120" height="60" as="geometry" />
        </mxCell>
        <mxCell id="LxnoNnFhpKsFhaCu3yyh-130" value="Notification Service" style="rounded=0;whiteSpace=wrap;html=1;" parent="1" vertex="1">
          <mxGeometry x="1510" y="1450" width="120" height="60" as="geometry" />
        </mxCell>
        <mxCell id="LxnoNnFhpKsFhaCu3yyh-132" style="edgeStyle=orthogonalEdgeStyle;rounded=0;orthogonalLoop=1;jettySize=auto;html=1;exitX=0;exitY=0.5;exitDx=0;exitDy=0;entryX=0.975;entryY=0.379;entryDx=0;entryDy=0;entryPerimeter=0;" parent="1" source="LxnoNnFhpKsFhaCu3yyh-130" target="LxnoNnFhpKsFhaCu3yyh-35" edge="1">
          <mxGeometry relative="1" as="geometry" />
        </mxCell>
        <mxCell id="LxnoNnFhpKsFhaCu3yyh-146" style="edgeStyle=orthogonalEdgeStyle;rounded=0;orthogonalLoop=1;jettySize=auto;html=1;exitX=0.75;exitY=1;exitDx=0;exitDy=0;entryX=0.442;entryY=0.022;entryDx=0;entryDy=0;entryPerimeter=0;" parent="1" source="LxnoNnFhpKsFhaCu3yyh-89" target="LxnoNnFhpKsFhaCu3yyh-41" edge="1">
          <mxGeometry relative="1" as="geometry">
            <Array as="points">
              <mxPoint x="1760" y="420" />
              <mxPoint x="2183" y="420" />
            </Array>
          </mxGeometry>
        </mxCell>
        <mxCell id="LxnoNnFhpKsFhaCu3yyh-158" style="edgeStyle=orthogonalEdgeStyle;rounded=0;orthogonalLoop=1;jettySize=auto;html=1;exitX=1;exitY=0;exitDx=0;exitDy=0;entryX=0;entryY=0.5;entryDx=0;entryDy=0;" parent="1" source="LxnoNnFhpKsFhaCu3yyh-147" target="LxnoNnFhpKsFhaCu3yyh-18" edge="1">
          <mxGeometry relative="1" as="geometry">
            <Array as="points">
              <mxPoint x="582" y="210" />
            </Array>
          </mxGeometry>
        </mxCell>
        <mxCell id="LxnoNnFhpKsFhaCu3yyh-159" style="edgeStyle=orthogonalEdgeStyle;rounded=0;orthogonalLoop=1;jettySize=auto;html=1;exitX=1;exitY=0.5;exitDx=0;exitDy=0;entryX=0;entryY=0.5;entryDx=0;entryDy=0;" parent="1" source="LxnoNnFhpKsFhaCu3yyh-147" target="LxnoNnFhpKsFhaCu3yyh-16" edge="1">
          <mxGeometry relative="1" as="geometry" />
        </mxCell>
        <mxCell id="LxnoNnFhpKsFhaCu3yyh-160" style="edgeStyle=orthogonalEdgeStyle;rounded=0;orthogonalLoop=1;jettySize=auto;html=1;exitX=1;exitY=0.5;exitDx=0;exitDy=0;entryX=0;entryY=0.5;entryDx=0;entryDy=0;" parent="1" source="LxnoNnFhpKsFhaCu3yyh-147" target="LxnoNnFhpKsFhaCu3yyh-28" edge="1">
          <mxGeometry relative="1" as="geometry">
            <Array as="points">
              <mxPoint x="700" y="660" />
              <mxPoint x="700" y="840" />
            </Array>
          </mxGeometry>
        </mxCell>
        <mxCell id="LxnoNnFhpKsFhaCu3yyh-164" style="edgeStyle=orthogonalEdgeStyle;rounded=0;orthogonalLoop=1;jettySize=auto;html=1;exitX=1;exitY=1;exitDx=0;exitDy=0;entryX=0;entryY=0.5;entryDx=0;entryDy=0;" parent="1" source="LxnoNnFhpKsFhaCu3yyh-147" target="LxnoNnFhpKsFhaCu3yyh-38" edge="1">
          <mxGeometry relative="1" as="geometry">
            <Array as="points">
              <mxPoint x="582" y="1320" />
            </Array>
          </mxGeometry>
        </mxCell>
        <mxCell id="LxnoNnFhpKsFhaCu3yyh-147" value="&lt;div&gt;Home Page&lt;/div&gt;" style="ellipse;whiteSpace=wrap;html=1;" parent="1" vertex="1">
          <mxGeometry x="420" y="607.75" width="200" height="100" as="geometry" />
        </mxCell>
        <mxCell id="LxnoNnFhpKsFhaCu3yyh-166" style="edgeStyle=orthogonalEdgeStyle;rounded=0;orthogonalLoop=1;jettySize=auto;html=1;exitX=0;exitY=0.5;exitDx=0;exitDy=0;entryX=0.651;entryY=0.98;entryDx=0;entryDy=0;entryPerimeter=0;" parent="1" source="LxnoNnFhpKsFhaCu3yyh-35" target="LxnoNnFhpKsFhaCu3yyh-147" edge="1">
          <mxGeometry relative="1" as="geometry">
            <Array as="points">
              <mxPoint x="550" y="1490" />
            </Array>
          </mxGeometry>
        </mxCell>
        <mxCell id="LxnoNnFhpKsFhaCu3yyh-167" style="edgeStyle=orthogonalEdgeStyle;rounded=0;orthogonalLoop=1;jettySize=auto;html=1;exitX=0;exitY=0.5;exitDx=0;exitDy=0;" parent="1" source="LxnoNnFhpKsFhaCu3yyh-21" edge="1">
          <mxGeometry relative="1" as="geometry">
            <mxPoint x="550" y="610" as="targetPoint" />
            <Array as="points">
              <mxPoint x="550" y="55" />
              <mxPoint x="550" y="608" />
            </Array>
          </mxGeometry>
        </mxCell>
        <mxCell id="ZktZ-QJ-nL15yRwZPYif-23" style="edgeStyle=orthogonalEdgeStyle;rounded=0;orthogonalLoop=1;jettySize=auto;html=1;exitX=1;exitY=0.5;exitDx=0;exitDy=0;entryX=0.5;entryY=0;entryDx=0;entryDy=0;" parent="1" source="ZktZ-QJ-nL15yRwZPYif-25" target="ZktZ-QJ-nL15yRwZPYif-32" edge="1">
          <mxGeometry relative="1" as="geometry" />
        </mxCell>
        <mxCell id="ZktZ-QJ-nL15yRwZPYif-24" value="&lt;div&gt;Specializes&lt;/div&gt;" style="edgeLabel;html=1;align=center;verticalAlign=middle;resizable=0;points=[];" parent="ZktZ-QJ-nL15yRwZPYif-23" vertex="1" connectable="0">
          <mxGeometry x="-0.0203" y="-1" relative="1" as="geometry">
            <mxPoint as="offset" />
          </mxGeometry>
        </mxCell>
        <mxCell id="ZktZ-QJ-nL15yRwZPYif-25" value="Alumni" style="rounded=0;whiteSpace=wrap;html=1;" parent="1" vertex="1">
          <mxGeometry x="40" y="522.25" width="120" height="60" as="geometry" />
        </mxCell>
        <mxCell id="ZktZ-QJ-nL15yRwZPYif-26" style="edgeStyle=orthogonalEdgeStyle;rounded=0;orthogonalLoop=1;jettySize=auto;html=1;exitX=1;exitY=0.5;exitDx=0;exitDy=0;entryX=0.5;entryY=1;entryDx=0;entryDy=0;" parent="1" source="ZktZ-QJ-nL15yRwZPYif-28" target="ZktZ-QJ-nL15yRwZPYif-32" edge="1">
          <mxGeometry relative="1" as="geometry" />
        </mxCell>
        <mxCell id="ZktZ-QJ-nL15yRwZPYif-27" value="Specializes" style="edgeLabel;html=1;align=center;verticalAlign=middle;resizable=0;points=[];" parent="ZktZ-QJ-nL15yRwZPYif-26" vertex="1" connectable="0">
          <mxGeometry x="-0.0398" y="-1" relative="1" as="geometry">
            <mxPoint as="offset" />
          </mxGeometry>
        </mxCell>
        <mxCell id="ZktZ-QJ-nL15yRwZPYif-28" value="Faculty" style="rounded=0;whiteSpace=wrap;html=1;" parent="1" vertex="1">
          <mxGeometry x="40" y="737.75" width="120" height="60" as="geometry" />
        </mxCell>
        <mxCell id="ZktZ-QJ-nL15yRwZPYif-29" style="edgeStyle=orthogonalEdgeStyle;rounded=0;orthogonalLoop=1;jettySize=auto;html=1;exitX=1;exitY=0.5;exitDx=0;exitDy=0;entryX=0;entryY=0.5;entryDx=0;entryDy=0;" parent="1" source="ZktZ-QJ-nL15yRwZPYif-31" target="ZktZ-QJ-nL15yRwZPYif-32" edge="1">
          <mxGeometry relative="1" as="geometry" />
        </mxCell>
        <mxCell id="ZktZ-QJ-nL15yRwZPYif-30" value="Specializes" style="edgeLabel;html=1;align=center;verticalAlign=middle;resizable=0;points=[];" parent="ZktZ-QJ-nL15yRwZPYif-29" vertex="1" connectable="0">
          <mxGeometry x="-0.1616" relative="1" as="geometry">
            <mxPoint as="offset" />
          </mxGeometry>
        </mxCell>
        <mxCell id="ZktZ-QJ-nL15yRwZPYif-31" value="Students" style="rounded=0;whiteSpace=wrap;html=1;" parent="1" vertex="1">
          <mxGeometry x="40" y="627.75" width="120" height="60" as="geometry" />
        </mxCell>
        <mxCell id="ZktZ-QJ-nL15yRwZPYif-33" style="edgeStyle=orthogonalEdgeStyle;rounded=0;orthogonalLoop=1;jettySize=auto;html=1;exitX=1;exitY=0.5;exitDx=0;exitDy=0;entryX=0;entryY=0.5;entryDx=0;entryDy=0;" parent="1" source="ZktZ-QJ-nL15yRwZPYif-32" target="LxnoNnFhpKsFhaCu3yyh-147" edge="1">
          <mxGeometry relative="1" as="geometry" />
        </mxCell>
        <mxCell id="ZktZ-QJ-nL15yRwZPYif-32" value="&lt;div&gt;User&lt;/div&gt;" style="rounded=0;whiteSpace=wrap;html=1;" parent="1" vertex="1">
          <mxGeometry x="250" y="627.75" width="120" height="60" as="geometry" />
        </mxCell>
        <mxCell id="ZktZ-QJ-nL15yRwZPYif-34" value="System" style="swimlane;horizontal=0;whiteSpace=wrap;html=1;" parent="1" vertex="1">
          <mxGeometry x="1900" y="325" width="120" height="60" as="geometry" />
        </mxCell>
        <mxCell id="ZktZ-QJ-nL15yRwZPYif-35" value="&lt;div&gt;Messages&lt;/div&gt;" style="swimlane;horizontal=0;whiteSpace=wrap;html=1;" parent="1" vertex="1">
          <mxGeometry x="1900" y="850" width="120" height="60" as="geometry" />
        </mxCell>
        <mxCell id="ZktZ-QJ-nL15yRwZPYif-37" value="&lt;div&gt;User&lt;/div&gt;" style="swimlane;horizontal=0;whiteSpace=wrap;html=1;" parent="1" vertex="1">
          <mxGeometry x="1900" y="510" width="120" height="60" as="geometry" />
        </mxCell>
        <mxCell id="ZktZ-QJ-nL15yRwZPYif-38" value="&lt;div&gt;Events&lt;/div&gt;" style="swimlane;horizontal=0;whiteSpace=wrap;html=1;startSize=23;" parent="1" vertex="1">
          <mxGeometry x="1900" y="1530" width="120" height="60" as="geometry" />
        </mxCell>
        <mxCell id="Djm51-BlNdo78NKAnqj3-1" value="" style="endArrow=none;html=1;rounded=0;" edge="1" parent="1">
          <mxGeometry width="50" height="50" relative="1" as="geometry">
            <mxPoint x="1770" y="570" as="sourcePoint" />
            <mxPoint x="1790" y="550" as="targetPoint" />
          </mxGeometry>
        </mxCell>
        <mxCell id="Djm51-BlNdo78NKAnqj3-2" value="" style="endArrow=none;html=1;rounded=0;" edge="1" parent="1">
          <mxGeometry width="50" height="50" relative="1" as="geometry">
            <mxPoint x="1770" y="910" as="sourcePoint" />
            <mxPoint x="1790" y="890" as="targetPoint" />
          </mxGeometry>
        </mxCell>
        <mxCell id="Djm51-BlNdo78NKAnqj3-3" value="" style="endArrow=none;html=1;rounded=0;" edge="1" parent="1">
          <mxGeometry width="50" height="50" relative="1" as="geometry">
            <mxPoint x="1770" y="1590" as="sourcePoint" />
            <mxPoint x="1790" y="1570" as="targetPoint" />
          </mxGeometry>
        </mxCell>
      </root>
    </mxGraphModel>
  </diagram>
</mxfile>
